<?xml version="1.0" encoding="utf-8"?>
<!-- Generator: Adobe Illustrator 22.0.1, SVG Export Plug-In . SVG Version: 6.00 Build 0)  -->
<svg version="1.1" id="Layer_1" xmlns="http://www.w3.org/2000/svg" xmlns:xlink="http://www.w3.org/1999/xlink" x="0px" y="0px"
	 viewBox="0 0 72 72" style="enable-background:new 0 0 72 72;" xml:space="preserve">
<style type="text/css">
	.st0{fill:#231F20;}
</style>
<g id="Livello_32">
	<path class="st0" d="M61.3026,63.5702H10.563V72h50.7396C61.3026,72,61.3026,63.5702,61.3026,63.5702z M60.4619,29.8583
		c-1.301-1.3015-3.4117-1.3015-4.7117,0L39.2229,46.3866V3.3335c0-1.842-1.494-3.3335-3.3335-3.3335
		c-1.841,0-3.3325,1.492-3.3325,3.334v43.0531L16.2521,30.0828c-1.3015-1.3025-3.4112-1.3025-4.7127,0
		c-1.303,1.3015-1.303,3.4117,0,4.7137l21.9934,21.9929c0.0762,0.0782,0.1595,0.1519,0.2443,0.2225
		c0.0386,0.0315,0.0787,0.0574,0.1189,0.0894c0.0478,0.033,0.0945,0.0721,0.1417,0.1046c0.0493,0.032,0.0975,0.0579,0.1453,0.0884
		c0.0447,0.0274,0.0884,0.0533,0.1346,0.0777c0.0508,0.0284,0.1011,0.0508,0.1514,0.0747c0.0493,0.0229,0.0965,0.0462,0.1438,0.0671
		c0.0498,0.0203,0.0996,0.0366,0.1499,0.0533c0.0528,0.0193,0.1052,0.0396,0.1585,0.0554c0.0513,0.0152,0.1001,0.0264,0.1509,0.0391
		c0.0549,0.0117,0.1087,0.0295,0.1646,0.0396c0.0584,0.0107,0.1174,0.0168,0.1758,0.0274c0.0493,0.0076,0.0975,0.0163,0.1468,0.0213
		c0.2184,0.0213,0.4394,0.0213,0.6579,0c0.0508-0.0051,0.097-0.0137,0.1468-0.0213c0.0579-0.0107,0.1184-0.0147,0.1748-0.0274
		c0.0554-0.0107,0.1102-0.0279,0.1646-0.0396c0.0518-0.0127,0.1011-0.0239,0.1519-0.0391c0.0533-0.0157,0.1052-0.0361,0.1585-0.0554
		c0.0518-0.0152,0.0991-0.0315,0.1499-0.0533c0.0488-0.0208,0.097-0.0442,0.1438-0.0671c0.0508-0.0244,0.1011-0.0467,0.1509-0.0747
		c0.0462-0.0244,0.0899-0.0528,0.1341-0.0777c0.0498-0.0305,0.098-0.0559,0.1458-0.0884c0.0488-0.0325,0.096-0.0716,0.1427-0.1046
		c0.0386-0.0315,0.0793-0.0574,0.1184-0.0894c0.1265-0.1036,0.2433-0.222,0.3526-0.3404c0.0386-0.034,0.0782-0.0665,0.1163-0.1031
		L60.4614,34.574C61.7634,33.2695,61.7634,31.1593,60.4619,29.8583"/>
</g>
<g id="Livello_1_1_">
</g>
</svg>
