<?xml version="1.0" encoding="utf-8"?>
<!-- Generator: Adobe Illustrator 21.1.0, SVG Export Plug-In . SVG Version: 6.00 Build 0)  -->
<svg version="1.1" id="guy" xmlns="http://www.w3.org/2000/svg" xmlns:xlink="http://www.w3.org/1999/xlink" x="0px" y="0px"
	 viewBox="0 0 288 288" style="enable-background:new 0 0 288 288;" xml:space="preserve">
<style type="text/css">
	.st0{fill:#EAC69B;}
	.st1{fill:#F2CE9E;}
	.st2{fill:#EFC100;}
	.st3{fill:#FFCC00;}
	.st4{opacity:5.000000e-02;}
	.st5{fill:none;stroke:#231F20;stroke-width:4;stroke-miterlimit:10;}
	.st6{fill:#222222;}
	.st7{fill:#333333;}
	.st8{fill:#4F4F4F;}
	.st9{fill:#555555;}
	.st10{fill:#417045;}
	.st11{fill:#932F2A;}
	.st12{fill:#FFFFFF;}
</style>
<g id="neck_1_">
	<path id="neck" class="st0" d="M144.1,180c-13.6,0-27.2-10.2-38.9-24.9L99,180v54h90v-54l-6.2-24.9
		C171.2,169.8,157.6,180,144.1,180z"/>
	<path id="neck_2_" class="st1" d="M144.1,180c-13.6,0-27.2-10.2-38.9-24.9L99,180v54h45L144.1,180z"/>
</g>
<g id="shirt_1_">
	<path id="shirt" class="st2" d="M189,180c0,18-18,36-45,36s-45-18-45-36l-63,36L0,288h288l-36-72L189,180z"/>
	<path id="shirt-over" class="st3" d="M144,216c-27,0-45-18-45-36l-63,36L0,288h144V216z"/>
</g>
<g id="face_1_">
	<path id="face-shadow" class="st4" d="M183.7,158.8c-11.6,14.7-26.2,24.7-39.7,24.7c-13.6,0-28-10-39.7-24.7l0.9-3.8l77.5,0.1
		L183.7,158.8z"/>
	<path id="face" class="st0" d="M144,180.3c13.5,0,27.1-10.2,38.7-24.9C202,131.1,216,94.6,216,72.1C216,32.3,183.8,0,144,0
		S72.3,32.3,72,72.1c-0.2,22.5,13.8,58.9,33,83.2C116.7,170,130.3,180.3,144,180.3z"/>
	<path id="face-over" class="st1" d="M144,0c-39.8,0-71.7,32.3-72,72.1c-0.2,22.5,13.8,58.9,33,83.2c11.7,14.7,25.3,25,39,25V0z"/>
</g>
<g id="glasses">
	<path class="st5" d="M125,117h-25c-5.5,0-10-4.5-10-10v-2.5c0-5.5,4.5-10,10-10h25c5.5,0,10,4.5,10,10v2.5
		C135,112.5,130.5,117,125,117z"/>
	<path class="st5" d="M188,94.5h-25c-5.5,0-10,4.5-10,10v2.5c0,5.5,4.5,10,10,10h25c5.5,0,10-4.5,10-10v-2.5
		C198,99,193.5,94.5,188,94.5z"/>
	<line class="st5" x1="135" y1="105.8" x2="153" y2="105.8"/>
</g>
<g id="hair_1_">
	<path id="hair" class="st6" d="M216,72c0-45-27-72-72-72C99.3,0,72,27,72,72c0,27,13.5,36,13.5,36V85.5l18-22.5c0,0,0,13.5,0,27
		c18,0,31.5-31.5,31.5-31.5s0,22.5,0,31.5c36,0,45-49.5,45-49.5s0,31.5,0,49.5c18,0,22.5-18,22.5-18s0,22.5,0,36
		C216,108,216,72,216,72z"/>
	<path id="hair-over" class="st7" d="M72,72c0,27,13.5,36,13.5,36V85.5l18-22.5c0,0,0,13.5,0,27c18,0,31.5-31.5,31.5-31.5
		s0,22.5,0,31.5c3.2,0,6.2-0.4,9-1.1V0C99,0,72,27,72,72z"/>
</g>
<path id="hat" class="st8" d="M216,72c0-39.8-18-72-72-72S72,32.2,72,72v9c0,0,36-18,72-18s72,18,72,18V72z"/>
<path id="hat-over" class="st9" d="M144,0C90,0,72,32.2,72,72v9c0,0,36-18,72-18"/>
<path id="rim-under" class="st10" d="M216,81c0,0-36-18-72-18S72,81,72,81l-9-9c0,0,36.2-21.2,81-21c45,0.2,81,21,81,21L216,81z"/>
<path id="rim-edge" class="st11" d="M225,72c0,0-40.5-20.3-81-20.3S63,72,63,72l4-7c0,0,36.5-18.3,77-18.3S221,65,221,65L225,72z"/>
<g>
	<g>
		<path class="st12" d="M113.6,35.2c1-0.2,2-0.4,2.9-0.6c0,1.4,0,2.7,0,4.1c-1.3,1.4-2.5,2.9-3.8,4.4c-3.1,0.7-6.1,1.4-9.2,2.3
			c-1.3-0.8-2.5-1.7-3.8-2.5c0-5.8-0.1-11.5-0.1-17.3c1.2-1.6,2.5-3.1,3.7-4.7c3-0.8,6.1-1.6,9.2-2.3c1.3,0.9,2.6,1.9,3.8,2.8
			c0,1.4,0,2.7,0,4.1c-1,0.2-2,0.4-2.9,0.6c0-0.9,0-1.8,0-2.8c-0.8-0.5-1.5-1.1-2.3-1.6c-2.1,0.5-4.2,1-6.3,1.6
			c-0.6,0.7-1.3,1.5-1.9,2.2c0,5.1,0.1,10.3,0.1,15.4c0.6,0.4,1.2,0.8,1.9,1.2c2.1-0.6,4.2-1.1,6.3-1.6c0.8-0.9,1.5-1.8,2.3-2.6
			C113.6,37,113.6,36.1,113.6,35.2z"/>
		<path class="st12" d="M125.8,16.4c3.3-0.4,6.6-0.7,9.9-0.9c0,0.9,0,1.7,0,2.6c-0.6,0-1.1,0.1-1.7,0.1c2.2,6.2,4.4,12.5,6.6,18.8
			c0.6,0,1.2,0,1.9,0c0,0.9,0,1.7,0,2.6c-2.6,0-5.2,0.1-7.9,0.3c0-0.9,0-1.7,0-2.6c0.9-0.1,1.7-0.1,2.6-0.1
			c-0.6-1.6-1.1-3.3-1.7-4.9c-3.1,0.2-6.2,0.5-9.3,0.8c-0.6,1.7-1.1,3.5-1.7,5.2c0.9-0.1,1.7-0.2,2.6-0.3c0,0.9,0,1.7,0,2.6
			c-2.6,0.3-5.2,0.7-7.8,1.1c0-0.9,0-1.7,0-2.6c0.6-0.1,1.2-0.2,1.8-0.3c2.1-6.7,4.3-13.4,6.4-20c-0.6,0.1-1.1,0.1-1.7,0.2
			C125.8,18.1,125.8,17.3,125.8,16.4z M130.8,19c-1.2,3.8-2.5,7.6-3.7,11.5c2.5-0.3,5-0.5,7.5-0.7C133.3,26.1,132,22.6,130.8,19z"/>
		<path class="st12" d="M146,15.3c5.3,0.1,10.6,0.4,15.8,1c1.3,1.3,2.6,2.7,3.8,4.1c0,5.7,0,11.5-0.1,17.2c-1.3,1-2.6,2-3.8,3.1
			c-5.2-0.6-10.5-1-15.8-1.1c0-0.9,0-1.7,0-2.6c0.9,0,1.7,0,2.6,0.1c0-6.4,0-12.8,0-19.1c-0.9,0-1.7,0-2.6-0.1
			C146,17,146,16.2,146,15.3z M152,37.1c2.8,0.2,5.5,0.4,8.3,0.7c0.6-0.5,1.3-1,1.9-1.5c0-5.1,0-10.2,0-15.3
			c-0.6-0.7-1.3-1.3-1.9-1.9c-2.8-0.3-5.6-0.5-8.4-0.7C152,24.6,152,30.8,152,37.1z"/>
		<path class="st12" d="M185.4,37.9c1,0.3,1.9,0.6,2.9,0.9c0,1.4,0,2.7,0,4.1c-1.3,0.8-2.5,1.6-3.8,2.5c-3-0.9-6.1-1.6-9.2-2.3
			c-1.3-1.5-2.5-2.9-3.8-4.4c0-5.7,0.1-11.5,0.1-17.2c1.3-1,2.6-1.9,3.8-2.8c3.1,0.7,6.1,1.4,9.2,2.3c1.3,1.5,2.5,3.1,3.7,4.7
			c0,1.4,0,2.7,0,4.1c-1-0.3-1.9-0.6-2.9-0.9c0-0.9,0-1.9,0-2.8c-0.8-0.9-1.5-1.8-2.3-2.8c-2.1-0.6-4.2-1.1-6.3-1.6
			c-0.6,0.4-1.3,0.9-1.9,1.3c0,5.1,0,10.2-0.1,15.4c0.6,0.7,1.2,1.4,1.9,2.1c2.1,0.5,4.2,1,6.3,1.6c0.8-0.5,1.6-1,2.3-1.5
			C185.3,39.8,185.4,38.8,185.4,37.9z"/>
	</g>
</g>
</svg>
