<?xml version="1.0" encoding="utf-8"?>
<!-- Generator: Adobe Illustrator 21.1.0, SVG Export Plug-In . SVG Version: 6.00 Build 0)  -->
<svg version="1.1" id="guy" xmlns="http://www.w3.org/2000/svg" xmlns:xlink="http://www.w3.org/1999/xlink" x="0px" y="0px"
	 viewBox="0 0 288 288" style="enable-background:new 0 0 288 288;" xml:space="preserve">
<style type="text/css">
	.st0{fill:#EAC69B;}
	.st1{fill:#F2CE9E;}
	.st2{fill:#1E4760;}
	.st3{fill:#214A6F;}
	.st4{opacity:5.000000e-02;}
	.st5{fill:#222222;}
</style>
<g id="neck_1_">
	<path id="neck" class="st0" d="M144.1,180c-13.6,0-27.2-10.2-38.9-24.9L99,180v54h90v-54l-6.2-24.9
		C171.2,169.8,157.6,180,144.1,180z"/>
	<path id="neck_2_" class="st1" d="M144.1,180c-13.6,0-27.2-10.2-38.9-24.9L99,180v54h45L144.1,180z"/>
</g>
<g id="shirt_1_">
	<path id="shirt" class="st2" d="M189,180c0,18-18,36-45,36s-45-18-45-36l-63,36L0,288h288l-36-72L189,180z"/>
	<path id="shirt-over" class="st3" d="M144,216c-27,0-45-18-45-36l-63,36L0,288h144V216z"/>
</g>
<g id="face_1_">
	<path id="face-shadow" class="st4" d="M183.7,158.8c-11.6,14.7-26.2,24.7-39.7,24.7c-13.6,0-28-10-39.7-24.7l0.9-3.8l77.5,0.1
		L183.7,158.8z"/>
	<path id="face" class="st0" d="M144,180.3c13.5,0,27.1-10.2,38.7-24.9C202,131.1,216,94.6,216,72.1C216,32.3,183.8,0,144,0
		S72.3,32.3,72,72.1c-0.2,22.5,13.8,58.9,33,83.2C116.7,170,130.3,180.3,144,180.3z"/>
	<path id="face-over" class="st1" d="M144,0c-39.8,0-71.7,32.3-72,72.1c-0.2,22.5,13.8,58.9,33,83.2c11.7,14.7,25.3,25,39,25V0z"/>
</g>
<g id="hair_1_">
	<path id="hair" class="st5" d="M216,72c0-45-27-72-72-72C99.3,0,72,27,72,72c0,27,13.5,36,13.5,36V85.5l18-22.5c0,0,4.5,9,0,27
		c18,0,31.5-31.5,31.5-31.5s0,22.5-9,31.5c36,0,54-49.5,54-49.5s9,22.5,0,49.5c18,0,22.5-18,22.5-18s4.5,18,0,36
		C216,108,216,72,216,72z"/>
</g>
</svg>
