<?xml version="1.0" encoding="utf-8"?>
<!-- Generator: Adobe Illustrator 21.1.0, SVG Export Plug-In . SVG Version: 6.00 Build 0)  -->
<svg version="1.1"
	 id="Layer_1" xmlns:cc="http://creativecommons.org/ns#" xmlns:dc="http://purl.org/dc/elements/1.1/" xmlns:rdf="http://www.w3.org/1999/02/22-rdf-syntax-ns#"
	 xmlns="http://www.w3.org/2000/svg" xmlns:xlink="http://www.w3.org/1999/xlink" x="0px" y="0px" viewBox="0 0 72 72"
	 style="enable-background:new 0 0 72 72;" xml:space="preserve">
<style type="text/css">
	.st0{fill:#231F20;}
</style>
<g transform="translate(0 -1028.4)">
	<path class="st0" d="M36,1028.4c-1.2,0-2.4,0.2-3.6,0.5c-0.7,0.2-1.3,0.4-2,0.7c-0.2,0.1-0.5,0.2-0.7,0.3c-0.1,0-0.2,0.1-0.3,0.2
		c-0.6,0.3-1.2,0.7-1.8,1c-0.1,0.1-0.2,0-0.3,0.1c-0.2,0.1-0.3,0.3-0.5,0.4c-0.5,0.3-1,0.6-1.4,1c-0.4,0.4-0.7,0.8-1.1,1.2
		c-1.3,1.3-2.4,2.7-3.3,4.3c-1.5,2.7-2.7,5.8-3.2,8.9c-0.2,0-0.4-0.1-0.7,0c-1.6,0.5-2,3.5-0.9,6.7c0.6,1.8,1.6,3.3,2.6,4.1
		c1.4,5.3,4.3,9.8,8.1,12.6v3.1l-3,3l-6,3c-4.8,2.4-9.7,4.8-14.5,7.2c-2.7,1.6-3.7,4.8-3.5,7.8c0.1,1.9-0.6,4.3,1.3,5.5
		c1.8,0.9,3.9,0.3,5.8,0.5c5.6,0,11.2,0,16.9,0c8,0,16,0,24,0c7.1,0,14.2,0,21.3,0c2.3-0.2,2.9-2.6,2.7-4.5c0-2.8,0.2-5.9-2-8.1
		c-1.8-1.8-4.3-2.5-6.5-3.7c-3.2-1.6-6.4-3.1-9.6-4.7l-6-3l-3-3v-3.1c3.8-2.8,6.7-7.2,8.1-12.6c1-0.8,2-2.3,2.6-4.1
		c1-3.1,0.6-6.1-0.9-6.7c-0.2-0.1-0.4,0-0.7,0c-0.5-3.1-1.6-6.2-3.2-8.9c-0.9-1.6-2-3-3.3-4.3c-0.4-0.4-0.7-0.9-1.1-1.2
		c0,0-0.1,0-0.1,0c-1.2-1-2.5-1.9-3.8-2.5c-0.3-0.2-0.7-0.3-1-0.5c-0.3-0.1-0.5-0.2-0.7-0.3c-0.8-0.3-1.5-0.5-2.3-0.7
		c-0.1,0-0.1,0-0.2,0C37.5,1028.5,36.8,1028.4,36,1028.4z"/>
	<path d="M0,1097.3c0.1,0.9,0.4,1.8,1.3,2.4c1.8,0.9,3.9,0.3,5.8,0.6H24h24h21.3c1.7-0.3,2.5-1.5,2.7-3H0z"/>
</g>
</svg>
