<?xml version="1.0" encoding="utf-8"?>
<!-- Generator: Adobe Illustrator 21.1.0, SVG Export Plug-In . SVG Version: 6.00 Build 0)  -->
<svg version="1.1" id="scroll-down" xmlns="http://www.w3.org/2000/svg" xmlns:xlink="http://www.w3.org/1999/xlink" x="0px"
	 y="0px" viewBox="0 0 54 63" style="enable-background:new 0 0 54 63;" xml:space="preserve">
<style type="text/css">
	.st0{fill:#231F20;}
</style>
<polygon id="arrow" class="st0" points="27.4,63 0,36 0,18 27,45 54,18 54,36 "/>
<g id="text">
	<path class="st0" d="M9.1,2.7C9,1.5,8.2,1,7,1C6,1,5.1,1.3,5.1,2.4c0,1.1,1.4,1.2,2.8,1.5c1.4,0.3,2.7,0.8,2.7,2.5
		C10.5,8.3,8.8,9,7.2,9C5.3,9,3.7,8,3.7,6h1.1C4.7,7.4,5.9,8,7.2,8c1,0,2.2-0.3,2.2-1.6c0-1.2-1.4-1.4-2.7-1.7
		C5.3,4.5,3.9,4.1,3.9,2.5C3.9,0.8,5.5,0,7,0c1.8,0,3.1,0.8,3.2,2.7H9.1z"/>
	<path class="st0" d="M18,2.8C17.7,1.6,16.8,1,15.6,1c-2,0-2.9,1.7-2.9,3.5c0,2,0.9,3.6,2.9,3.6C17.1,8,17.9,7,18,5.5h1.1
		C19,7.7,17.6,9,15.5,9c-2.7,0-4-2-4-4.5C11.5,2,12.9,0,15.6,0c1.8,0,3.3,1,3.5,2.8H18z"/>
	<path class="st0" d="M20.6,0.2h4c1.6,0,2.6,0.9,2.6,2.2c0,1-0.5,1.9-1.5,2.2v0c1,0.2,1.2,0.9,1.3,1.8c0.1,0.8,0,1.8,0.5,2.4h-1.3
		C26,8.4,26.1,7.5,26,6.7c-0.1-0.8-0.3-1.5-1.4-1.5h-2.8v3.7h-1.1V0.2z M24.1,4.2c1.1,0,2-0.3,2-1.5c0-0.8-0.5-1.5-1.5-1.5h-2.8v3
		H24.1z"/>
	<path class="st0" d="M32.5,0c2.7,0,4.1,2.2,4.1,4.5S35.2,9,32.5,9c-2.7,0-4.1-2.2-4.1-4.5S29.7,0,32.5,0z M32.5,8
		c2.1,0,3-1.8,3-3.5S34.6,1,32.5,1s-3,1.8-3,3.5S30.4,8,32.5,8z"/>
	<path class="st0" d="M38,0.2h1.1v7.6h4.5v1H38V0.2z"/>
	<path class="st0" d="M44.7,0.2h1.1v7.6h4.5v1h-5.7V0.2z"/>
	<path class="st0" d="M9,9.2H12c2.6,0,4.1,1.3,4.1,4.1c0,2.9-1.3,4.5-4.1,4.5H9V9.2z M10.2,16.8h1.9c0.8,0,2.9-0.2,2.9-3.4
		c0-2-0.8-3.3-2.9-3.3h-1.9V16.8z"/>
	<path class="st0" d="M21.1,9c2.7,0,4.1,2.2,4.1,4.5S23.9,18,21.1,18c-2.7,0-4.1-2.2-4.1-4.5S18.4,9,21.1,9z M21.1,17
		c2.1,0,3-1.8,3-3.5s-0.9-3.5-3-3.5s-3,1.8-3,3.5S19,17,21.1,17z"/>
	<path class="st0" d="M34.4,17.8h-1.2l-2-7.2h0l-2,7.2H28l-2.2-8.6H27l1.7,7.1h0l1.9-7.1h1.2l1.9,7.1h0l1.7-7.1h1.1L34.4,17.8z"/>
	<path class="st0" d="M37.8,9.2H39l4.5,7h0v-7h1.1v8.6h-1.2l-4.5-6.9h0v6.9h-1.1V9.2z"/>
</g>
</svg>
