<?xml version="1.0" encoding="utf-8"?>
<!-- Generator: Adobe Illustrator 22.0.0, SVG Export Plug-In . SVG Version: 6.00 Build 0)  -->
<svg version="1.1" id="Layer_1" xmlns="http://www.w3.org/2000/svg" xmlns:xlink="http://www.w3.org/1999/xlink" x="0px" y="0px"
	 viewBox="0 0 108 126" style="enable-background:new 0 0 108 126;" xml:space="preserve">
<style type="text/css">
	.st0{opacity:0.25;fill:#0000FF;}
	.st1{opacity:0.25;}
	.st2{fill:none;stroke:#0000FF;stroke-width:1.4444;stroke-linejoin:round;}
	.st3{opacity:0.25;fill:#00FF00;}
	.st4{fill:none;stroke:#00FF00;stroke-width:1.4444;stroke-linejoin:round;}
	.st5{opacity:0.25;fill:#FF0000;}
	.st6{fill:none;stroke:#FF0000;stroke-width:1.4444;stroke-linejoin:round;}
	.st7{fill:none;stroke:#000000;stroke-width:1.4444;stroke-linejoin:round;}
</style>
<g id="blue-group">
	<path class="st0" d="M46.3,73.4v-8.7h-8.7v8.7H46.3z M46.3,56.1v-8.7h-8.7v8.7H46.3z M46.3,38.7v-8.7h-8.7v8.7H46.3z M29,47.4h8.7
		v-8.7H29V47.4z M81,4.1H3v121.3h104V30.1L81,4.1z M98.3,116.7H11.7v-104h26v8.7h8.7v-8.7h26l26,26V116.7z M29,30.1h8.7v-8.7H29
		V30.1z M29,64.7h8.7v-8.7H29V64.7z M29,82.1l-8.7,8.7v17.3H55V90.7l-8.7-8.7h-8.7v-8.7H29V82.1z M46.3,90.7v8.7H29v-8.7H46.3z"/>
	<g id="male_12_" class="st1">
		<polyline class="st2" points="76.7,47.4 87.5,47.4 87.5,56.8 		"/>
		<circle class="st2" cx="73.1" cy="61.8" r="7.2"/>
		<line class="st2" x1="87.5" y1="47.4" x2="78.1" y2="56.8"/>
	</g>
	<g id="male_11_" class="st1">
		<polyline class="st2" points="76.7,62.6 87.5,62.6 87.5,72.1 		"/>
		<circle class="st2" cx="73.1" cy="77.1" r="7.2"/>
		<line class="st2" x1="87.5" y1="62.6" x2="78.1" y2="72.1"/>
	</g>
	<g id="male_10_" class="st1">
		<polyline class="st2" points="76.7,78.2 87.5,78.2 87.5,87.7 		"/>
		<circle class="st2" cx="73.1" cy="92.7" r="7.2"/>
		<line class="st2" x1="87.5" y1="78.2" x2="78.1" y2="87.7"/>
	</g>
</g>
<g id="green-group">
	<path class="st3" d="M46.3,69.9v-8.7h-8.7v8.7H46.3z M46.3,52.6v-8.7h-8.7v8.7H46.3z M46.3,35.3v-8.7h-8.7v8.7H46.3z M29,43.9h8.7
		v-8.7H29V43.9z M81,0.6H3v121.3h104V26.6L81,0.6z M98.3,113.3H11.7V9.3h26v8.7h8.7V9.3h26l26,26V113.3z M29,26.6h8.7v-8.7H29V26.6z
		 M29,61.3h8.7v-8.7H29V61.3z M29,78.6l-8.7,8.7v17.3H55V87.3l-8.7-8.7h-8.7v-8.7H29V78.6z M46.3,87.3v8.7H29v-8.7H46.3z"/>
	<g id="male_9_" class="st1">
		<polyline class="st4" points="76.7,43.9 87.5,43.9 87.5,53.4 		"/>
		<circle class="st4" cx="73.1" cy="58.4" r="7.2"/>
		<line class="st4" x1="87.5" y1="43.9" x2="78.1" y2="53.4"/>
	</g>
	<g id="male_8_" class="st1">
		<polyline class="st4" points="76.7,59.1 87.5,59.1 87.5,68.6 		"/>
		<circle class="st4" cx="73.1" cy="73.6" r="7.2"/>
		<line class="st4" x1="87.5" y1="59.1" x2="78.1" y2="68.6"/>
	</g>
	<g id="male_7_" class="st1">
		<polyline class="st4" points="76.7,74.7 87.5,74.7 87.5,84.2 		"/>
		<circle class="st4" cx="73.1" cy="89.2" r="7.2"/>
		<line class="st4" x1="87.5" y1="74.7" x2="78.1" y2="84.2"/>
	</g>
</g>
<g id="red-group">
	<path class="st5" d="M43.3,71.7V63h-8.7v8.7H43.3z M43.3,54.3v-8.7h-8.7v8.7H43.3z M43.3,37v-8.7h-8.7V37H43.3z M26,45.7h8.7V37H26
		V45.7z M78,2.3H0v121.3h104V28.3L78,2.3z M95.3,115H8.7V11h26v8.7h8.7V11h26l26,26V115z M26,28.3h8.7v-8.7H26V28.3z M26,63h8.7
		v-8.7H26V63z M26,80.3L17.3,89v17.3H52V89l-8.7-8.7h-8.7v-8.7H26V80.3z M43.3,89v8.7H26V89H43.3z"/>
	<g id="male_6_" class="st1">
		<polyline class="st6" points="73.7,45.7 84.5,45.7 84.5,55.1 		"/>
		<circle class="st6" cx="70.1" cy="60.1" r="7.2"/>
		<line class="st6" x1="84.5" y1="45.7" x2="75.1" y2="55.1"/>
	</g>
	<g id="male_5_" class="st1">
		<polyline class="st6" points="73.7,60.9 84.5,60.9 84.5,70.3 		"/>
		<circle class="st6" cx="70.1" cy="75.3" r="7.2"/>
		<line class="st6" x1="84.5" y1="60.9" x2="75.1" y2="70.3"/>
	</g>
	<g id="male_4_" class="st1">
		<polyline class="st6" points="73.7,76.5 84.5,76.5 84.5,85.9 		"/>
		<circle class="st6" cx="70.1" cy="90.9" r="7.2"/>
		<line class="st6" x1="84.5" y1="76.5" x2="75.1" y2="85.9"/>
	</g>
</g>
<g id="group">
	<path d="M45.3,71.7V63h-8.7v8.7H45.3z M45.3,54.3v-8.7h-8.7v8.7H45.3z M45.3,37v-8.7h-8.7V37H45.3z M28,45.7h8.7V37H28V45.7z
		 M80,2.3H2v121.3h104V28.3L80,2.3z M97.3,115H10.7V11h26v8.7h8.7V11h26l26,26V115z M28,28.3h8.7v-8.7H28V28.3z M28,63h8.7v-8.7H28
		V63z M28,80.3L19.3,89v17.3H54V89l-8.7-8.7h-8.7v-8.7H28V80.3z M45.3,89v8.7H28V89H45.3z"/>
	<g id="male_1_">
		<polyline class="st7" points="75.7,45.7 86.5,45.7 86.5,55.1 		"/>
		<circle class="st7" cx="72.1" cy="60.1" r="7.2"/>
		<line class="st7" x1="86.5" y1="45.7" x2="77.1" y2="55.1"/>
	</g>
	<g id="male_2_">
		<polyline class="st7" points="75.7,60.9 86.5,60.9 86.5,70.3 		"/>
		<circle class="st7" cx="72.1" cy="75.3" r="7.2"/>
		<line class="st7" x1="86.5" y1="60.9" x2="77.1" y2="70.3"/>
	</g>
	<g id="male_3_">
		<polyline class="st7" points="75.7,76.5 86.5,76.5 86.5,85.9 		"/>
		<circle class="st7" cx="72.1" cy="90.9" r="7.2"/>
		<line class="st7" x1="86.5" y1="76.5" x2="77.1" y2="85.9"/>
	</g>
</g>
</svg>
