<?xml version="1.0" encoding="utf-8"?>
<!-- Generator: Adobe Illustrator 21.1.0, SVG Export Plug-In . SVG Version: 6.00 Build 0)  -->
<svg version="1.1" id="Layer_1" xmlns="http://www.w3.org/2000/svg" xmlns:xlink="http://www.w3.org/1999/xlink" x="0px" y="0px"
	 viewBox="0 0 108 126" style="enable-background:new 0 0 108 126;" xml:space="preserve">
<style type="text/css">
	.st0{fill:none;stroke:#000000;stroke-width:1.5;stroke-linejoin:round;}
</style>
<path d="M45,72v-9h-9v9H45z M45,54v-9h-9v9H45z M45,36v-9h-9v9H45z M27,45h9v-9h-9V45z M81,0H0v126h108V27L81,0z M99,117H9V9h27v9h9
	V9h27l27,27V117z M27,27h9v-9h-9V27z M27,63h9v-9h-9V63z M27,81l-9,9v18h36V90l-9-9h-9v-9h-9V81z M45,90v9H27v-9H45z"/>
<g id="male_1_">
	<polyline class="st0" points="76.5,45 87.8,45 87.8,54.8 	"/>
	<circle class="st0" cx="72.8" cy="60" r="7.5"/>
	<line class="st0" x1="87.8" y1="45" x2="78" y2="54.8"/>
</g>
<g id="male_2_">
	<polyline class="st0" points="76.5,60.8 87.8,60.8 87.8,70.6 	"/>
	<circle class="st0" cx="72.8" cy="75.8" r="7.5"/>
	<line class="st0" x1="87.8" y1="60.8" x2="78" y2="70.6"/>
</g>
<g id="male_3_">
	<polyline class="st0" points="76.5,77 87.8,77 87.8,86.8 	"/>
	<circle class="st0" cx="72.8" cy="92" r="7.5"/>
	<line class="st0" x1="87.8" y1="77" x2="78" y2="86.8"/>
</g>
</svg>
